<svg xmlns="http://www.w3.org/2000/svg" viewBox="0 0 400 400">
  <!-- Background -->
  <rect width="400" height="400" fill="#2C3333" />

  <!-- Central Coin -->
  <circle cx="200" cy="200" r="70" fill="#FFD369" />
  <circle cx="200" cy="200" r="60" fill="#F9A826" />

  <!-- Scanning Beam -->
  <line x1="170" y1="100" x2="170" y2="300" stroke="#0EF6CC" stroke-width="2" stroke-dasharray="5,5" opacity="0.7" />
  <line x1="230" y1="100" x2="230" y2="300" stroke="#0EF6CC" stroke-width="2" stroke-dasharray="5,5" opacity="0.7" />

  <!-- AI Robot -->
  <rect x="60" y="150" width="80" height="100" fill="#5089C6" rx="10" />
  <rect x="70" y="160" width="60" height="80" fill="#2C3333" rx="5" />

  <!-- Robot Eyes - scanning -->
  <rect x="80" y="175" width="15" height="8" fill="#0EF6CC" />
  <rect x="105" y="175" width="15" height="8" fill="#0EF6CC" />

  <!-- Robot Antenna -->
  <rect x="95" y="140" width="10" height="15" fill="#5089C6" />
  <circle cx="100" cy="135" r="8" fill="#0EF6CC" />

  <!-- Digital Brain Patterns -->
  <line x1="80" y1="195" x2="120" y2="195" stroke="#0EF6CC" stroke-width="2" />
  <line x1="80" y1="205" x2="120" y2="205" stroke="#0EF6CC" stroke-width="2" />
  <line x1="80" y1="215" x2="120" y2="215" stroke="#0EF6CC" stroke-width="2" />

  <!-- Robot Scanning Arm -->
  <rect x="140" y="180" width="30" height="10" fill="#5089C6" />
  <rect x="165" y="175" width="10" height="20" fill="#5089C6" rx="5" />
  <circle cx="170" cy="175" r="5" fill="#0EF6CC" />

  <!-- Analysis Data Panel -->
  <rect x="260" y="150" width="100" height="120" fill="#395B64" rx="5" />
  <rect x="270" y="160" width="80" height="100" fill="#2C3333" rx="3" />

  <!-- Analysis Panel (without text) -->

  <!-- Graph on Analysis Panel -->
  <polyline points="275,255 285,250 295,260 305,245 315,248 325,235 335,240 345,230"
           stroke="#0EF6CC" stroke-width="2" fill="none" />

  <!-- Digital Info Particles -->
  <circle cx="210" cy="160" r="3" fill="#0EF6CC" />
  <circle cx="220" cy="240" r="3" fill="#0EF6CC" />
  <circle cx="180" cy="240" r="3" fill="#0EF6CC" />
  <circle cx="190" cy="160" r="3" fill="#0EF6CC" />

  <!-- Data Flow Lines -->
  <line x1="175" y1="180" x2="190" y2="170" stroke="#0EF6CC" stroke-width="1" stroke-dasharray="2,2" />
  <line x1="175" y1="190" x2="190" y2="200" stroke="#0EF6CC" stroke-width="1" stroke-dasharray="2,2" />
  <line x1="210" y1="170" x2="260" y2="170" stroke="#0EF6CC" stroke-width="1" stroke-dasharray="2,2" />
  <line x1="210" y1="200" x2="260" y2="200" stroke="#0EF6CC" stroke-width="1" stroke-dasharray="2,2" />
  <line x1="210" y1="230" x2="260" y2="230" stroke="#0EF6CC" stroke-width="1" stroke-dasharray="2,2" />
</svg>
