<svg xmlns="http://www.w3.org/2000/svg" viewBox="0 0 400 400">
  <!-- Background -->
  <rect width="400" height="400" fill="#1A1A2E" />

  <!-- Monitor/Screen -->
  <rect x="100" y="100" width="200" height="150" fill="#0F3460" />
  <rect x="110" y="110" width="180" height="130" fill="#162447" />

  <!-- Market Chart -->
  <polyline points="120,190 140,170 160,180 180,150 200,160 220,130 240,140 260,120 280,110"
           stroke="#16C79A" stroke-width="4" fill="none" />
  <polyline points="120,200 140,210 160,190 180,200 200,220 220,210 240,230 260,220 280,240"
           stroke="#F05454" stroke-width="4" fill="none" />

  <!-- Crypto Icons on Screen -->
  <!-- Bitcoin -->
  <rect x="130" y="130" width="20" height="20" fill="#F6B93B" rx="2" />

  <!-- Ethereum -->
  <rect x="160" y="130" width="20" height="20" fill="#6C5CE7" rx="2" />

  <!-- Other coin -->
  <rect x="190" y="130" width="20" height="20" fill="#00B894" rx="2" />

  <!-- AI Robot Head -->
  <rect x="150" y="40" width="100" height="80" fill="#3282B8" rx="10" />
  <rect x="160" y="50" width="80" height="60" fill="#1B262C" rx="5" />

  <!-- Robot Eyes - analyzing -->
  <rect x="175" y="65" width="20" height="10" fill="#16C79A" />
  <rect x="205" y="65" width="20" height="10" fill="#16C79A" />

  <!-- Robot Antenna -->
  <rect x="195" y="30" width="10" height="20" fill="#3282B8" />
  <circle cx="200" cy="25" r="10" fill="#16C79A" />

  <!-- Digital Brain Patterns -->
  <line x1="170" y1="80" x2="190" y2="80" stroke="#16C79A" stroke-width="2" />
  <line x1="210" y1="80" x2="230" y2="80" stroke="#16C79A" stroke-width="2" />
  <line x1="170" y1="90" x2="230" y2="90" stroke="#16C79A" stroke-width="2" />

  <!-- Robot Arms -->
  <rect x="90" y="150" width="10" height="50" fill="#3282B8" />
  <rect x="300" y="150" width="10" height="50" fill="#3282B8" />

  <!-- Robot Hands on Market -->
  <rect x="80" y="190" width="20" height="10" fill="#3282B8" rx="5" />
  <rect x="300" y="190" width="20" height="10" fill="#3282B8" rx="5" />

  <!-- Market Analysis Panel (without text) -->
  <rect x="110" y="260" width="180" height="60" fill="#0F3460" rx="5" />

  <!-- Digital Particles -->
  <circle cx="140" cy="150" r="3" fill="#F6B93B" />
  <circle cx="260" cy="140" r="3" fill="#6C5CE7" />
  <circle cx="220" cy="180" r="3" fill="#00B894" />
  <circle cx="180" cy="130" r="3" fill="#F05454" />
  <circle cx="120" cy="170" r="3" fill="#16C79A" />
</svg>
