<svg width="201" height="173" viewBox="0 0 201 173" fill="none" xmlns="http://www.w3.org/2000/svg">
<path d="M15.4765 159.038C6.92907 154.964 3.30275 144.732 7.37691 136.185L57.6343 30.7464C65.6622 13.9041 85.8234 6.75867 102.666 14.7866C102.918 14.907 103.025 15.2094 102.905 15.462L38.3299 150.939C34.2558 159.486 24.0239 163.112 15.4765 159.038Z" fill="url(#paint0_linear_217_7)"/>
<path d="M166.43 160.519C184.726 161.326 200 146.711 200 128.398L200 68C200 58.6112 192.389 51 183 51C173.611 51 166 58.6112 166 68V160.069C166 160.31 166.19 160.508 166.43 160.519Z" fill="url(#paint1_linear_217_7)"/>
<path d="M73.5747 15.2354C90.2479 6.82111 110.585 13.5163 119 30.1895L182.929 156.868C166.022 165.4 145.4 158.611 136.868 141.704L73.3653 15.8713C73.2475 15.6379 73.3413 15.3532 73.5747 15.2354Z" fill="url(#paint2_linear_217_7)"/>
<circle cx="183.145" cy="27.1447" r="17.1447" fill="#85F612"/>
<path d="M183.539 17.2809C186.604 16.6487 189.155 16.7005 190.313 19.33C191.181 21.302 190.687 22.651 189.391 24.0263C191.798 23.8152 193.571 24.6919 194.202 27.6053C194.992 31.3136 192.635 33.1238 188.926 34.577L190.119 38.2719L187.863 39.0111L186.669 35.3163C186.008 35.6042 185.476 35.7549 184.811 35.9097L186.004 39.6046L183.746 40.3448L182.554 36.649C182.022 36.7995 181.49 36.9505 180.958 37.1011L178.037 37.9956L177.678 35.2059L179.269 34.6221C179.93 34.3341 179.913 33.8011 179.904 33.5346L177.969 27.5959L178.233 27.4545L177.964 27.4632L176.621 23.2387C176.336 22.7145 175.921 22.3282 174.991 22.6249C175.124 22.6206 173.429 23.2001 173.401 23.2098L172.653 20.8332L175.701 19.6679C176.232 19.5174 176.63 19.3716 177.162 19.2211L175.97 15.5252L178.226 14.786L179.418 18.4809C180.084 18.3261 180.746 18.0379 181.278 17.8874L180.089 14.3253L182.346 13.586L183.539 17.2809ZM189.801 28.4138C188.768 25.5137 184.137 27.5302 182.542 27.9817L184.18 32.996C185.771 32.4111 190.695 31.1851 189.801 28.4138ZM186.365 21.7243C185.609 19.0817 181.64 20.8094 180.313 21.2523L181.799 25.7389C183.126 25.296 187.251 24.2292 186.365 21.7243Z" fill="black"/>
<defs>
<linearGradient id="paint0_linear_217_7" x1="87.6466" y1="7.62769" x2="15.4765" y2="159.038" gradientUnits="userSpaceOnUse">
<stop stop-color="#353CC8"/>
<stop offset="1" stop-color="#9E1FDE"/>
</linearGradient>
<linearGradient id="paint1_linear_217_7" x1="183" y1="162" x2="183" y2="51" gradientUnits="userSpaceOnUse">
<stop stop-color="#01FCFD"/>
<stop offset="1" stop-color="#85F612"/>
</linearGradient>
<linearGradient id="paint2_linear_217_7" x1="88.4581" y1="7.72434" x2="167.623" y2="164.592" gradientUnits="userSpaceOnUse">
<stop stop-color="#353CC8"/>
<stop offset="1" stop-color="#01FCFD"/>
</linearGradient>
</defs>
</svg>
